<?xml version="1.0" encoding="utf-8" standalone="no"?>
<!DOCTYPE svg PUBLIC "-//W3C//DTD SVG 1.1//EN"
  "http://www.w3.org/Graphics/SVG/1.1/DTD/svg11.dtd">
<svg xmlns:xlink="http://www.w3.org/1999/xlink" width="733.447936pt" height="287.32925pt" viewBox="0 0 733.447936 287.32925" xmlns="http://www.w3.org/2000/svg" version="1.1">
 <metadata>
  <rdf:RDF xmlns:dc="http://purl.org/dc/elements/1.1/" xmlns:cc="http://creativecommons.org/ns#" xmlns:rdf="http://www.w3.org/1999/02/22-rdf-syntax-ns#">
   <cc:Work>
    <dc:type rdf:resource="http://purl.org/dc/dcmitype/StillImage"/>
    <dc:date>2025-11-24T22:34:05.712513</dc:date>
    <dc:format>image/svg+xml</dc:format>
    <dc:creator>
     <cc:Agent>
      <dc:title>Matplotlib v3.10.7, https://matplotlib.org/</dc:title>
     </cc:Agent>
    </dc:creator>
   </cc:Work>
  </rdf:RDF>
 </metadata>
 <defs>
  <style type="text/css">*{stroke-linejoin: round; stroke-linecap: butt}</style>
 </defs>
 <g id="figure_1">
  <g id="patch_1">
   <path d="M 0 287.32925 
L 733.447936 287.32925 
L 733.447936 0 
L 0 0 
z
" style="fill: #ffffff"/>
  </g>
  <g id="axes_1">
   <g id="patch_2">
    <path d="M 56.5325 245.90175 
L 360.896136 245.90175 
L 360.896136 24.14175 
L 56.5325 24.14175 
z
" style="fill: #ffffff"/>
   </g>
   <g id="patch_3">
    <path d="M 70.367211 245.90175 
L 84.201921 245.90175 
L 84.201921 219.50175 
L 70.367211 219.50175 
z
" clip-path="url(#p4520e2aa25)" style="fill: #0072b2; opacity: 0.35; stroke: #ffffff; stroke-linejoin: miter"/>
   </g>
   <g id="patch_4">
    <path d="M 84.201921 245.90175 
L 98.036632 245.90175 
L 98.036632 166.70175 
L 84.201921 166.70175 
z
" clip-path="url(#p4520e2aa25)" style="fill: #0072b2; opacity: 0.35; stroke: #ffffff; stroke-linejoin: miter"/>
   </g>
   <g id="patch_5">
    <path d="M 98.036632 245.90175 
L 111.871343 245.90175 
L 111.871343 245.90175 
L 98.036632 245.90175 
z
" clip-path="url(#p4520e2aa25)" style="fill: #0072b2; opacity: 0.35; stroke: #ffffff; stroke-linejoin: miter"/>
   </g>
   <g id="patch_6">
    <path d="M 111.871343 245.90175 
L 125.706054 245.90175 
L 125.706054 219.50175 
L 111.871343 219.50175 
z
" clip-path="url(#p4520e2aa25)" style="fill: #0072b2; opacity: 0.35; stroke: #ffffff; stroke-linejoin: miter"/>
   </g>
   <g id="patch_7">
    <path d="M 125.706054 245.90175 
L 139.540764 245.90175 
L 139.540764 219.50175 
L 125.706054 219.50175 
z
" clip-path="url(#p4520e2aa25)" style="fill: #0072b2; opacity: 0.35; stroke: #ffffff; stroke-linejoin: miter"/>
   </g>
   <g id="patch_8">
    <path d="M 139.540764 245.90175 
L 153.375475 245.90175 
L 153.375475 166.70175 
L 139.540764 166.70175 
z
" clip-path="url(#p4520e2aa25)" style="fill: #0072b2; opacity: 0.35; stroke: #ffffff; stroke-linejoin: miter"/>
   </g>
   <g id="patch_9">
    <path d="M 153.375475 245.90175 
L 167.210186 245.90175 
L 167.210186 87.50175 
L 153.375475 87.50175 
z
" clip-path="url(#p4520e2aa25)" style="fill: #0072b2; opacity: 0.35; stroke: #ffffff; stroke-linejoin: miter"/>
   </g>
   <g id="patch_10">
    <path d="M 167.210186 245.90175 
L 181.044897 245.90175 
L 181.044897 34.70175 
L 167.210186 34.70175 
z
" clip-path="url(#p4520e2aa25)" style="fill: #0072b2; opacity: 0.35; stroke: #ffffff; stroke-linejoin: miter"/>
   </g>
   <g id="patch_11">
    <path d="M 181.044897 245.90175 
L 194.879607 245.90175 
L 194.879607 61.10175 
L 181.044897 61.10175 
z
" clip-path="url(#p4520e2aa25)" style="fill: #0072b2; opacity: 0.35; stroke: #ffffff; stroke-linejoin: miter"/>
   </g>
   <g id="patch_12">
    <path d="M 194.879607 245.90175 
L 208.714318 245.90175 
L 208.714318 113.90175 
L 194.879607 113.90175 
z
" clip-path="url(#p4520e2aa25)" style="fill: #0072b2; opacity: 0.35; stroke: #ffffff; stroke-linejoin: miter"/>
   </g>
   <g id="patch_13">
    <path d="M 208.714318 245.90175 
L 222.549029 245.90175 
L 222.549029 193.10175 
L 208.714318 193.10175 
z
" clip-path="url(#p4520e2aa25)" style="fill: #0072b2; opacity: 0.35; stroke: #ffffff; stroke-linejoin: miter"/>
   </g>
   <g id="patch_14">
    <path d="M 222.549029 245.90175 
L 236.38374 245.90175 
L 236.38374 87.50175 
L 222.549029 87.50175 
z
" clip-path="url(#p4520e2aa25)" style="fill: #0072b2; opacity: 0.35; stroke: #ffffff; stroke-linejoin: miter"/>
   </g>
   <g id="patch_15">
    <path d="M 236.38374 245.90175 
L 250.21845 245.90175 
L 250.21845 140.30175 
L 236.38374 140.30175 
z
" clip-path="url(#p4520e2aa25)" style="fill: #0072b2; opacity: 0.35; stroke: #ffffff; stroke-linejoin: miter"/>
   </g>
   <g id="patch_16">
    <path d="M 250.21845 245.90175 
L 264.053161 245.90175 
L 264.053161 113.90175 
L 250.21845 113.90175 
z
" clip-path="url(#p4520e2aa25)" style="fill: #0072b2; opacity: 0.35; stroke: #ffffff; stroke-linejoin: miter"/>
   </g>
   <g id="patch_17">
    <path d="M 264.053161 245.90175 
L 277.887872 245.90175 
L 277.887872 193.10175 
L 264.053161 193.10175 
z
" clip-path="url(#p4520e2aa25)" style="fill: #0072b2; opacity: 0.35; stroke: #ffffff; stroke-linejoin: miter"/>
   </g>
   <g id="patch_18">
    <path d="M 277.887872 245.90175 
L 291.722583 245.90175 
L 291.722583 140.30175 
L 277.887872 140.30175 
z
" clip-path="url(#p4520e2aa25)" style="fill: #0072b2; opacity: 0.35; stroke: #ffffff; stroke-linejoin: miter"/>
   </g>
   <g id="patch_19">
    <path d="M 291.722583 245.90175 
L 305.557293 245.90175 
L 305.557293 193.10175 
L 291.722583 193.10175 
z
" clip-path="url(#p4520e2aa25)" style="fill: #0072b2; opacity: 0.35; stroke: #ffffff; stroke-linejoin: miter"/>
   </g>
   <g id="patch_20">
    <path d="M 305.557293 245.90175 
L 319.392004 245.90175 
L 319.392004 245.90175 
L 305.557293 245.90175 
z
" clip-path="url(#p4520e2aa25)" style="fill: #0072b2; opacity: 0.35; stroke: #ffffff; stroke-linejoin: miter"/>
   </g>
   <g id="patch_21">
    <path d="M 319.392004 245.90175 
L 333.226715 245.90175 
L 333.226715 140.30175 
L 319.392004 140.30175 
z
" clip-path="url(#p4520e2aa25)" style="fill: #0072b2; opacity: 0.35; stroke: #ffffff; stroke-linejoin: miter"/>
   </g>
   <g id="patch_22">
    <path d="M 333.226715 245.90175 
L 347.061426 245.90175 
L 347.061426 193.10175 
L 333.226715 193.10175 
z
" clip-path="url(#p4520e2aa25)" style="fill: #0072b2; opacity: 0.35; stroke: #ffffff; stroke-linejoin: miter"/>
   </g>
   <g id="matplotlib.axis_1">
    <g id="xtick_1">
     <g id="line2d_1">
      <path d="M 66.68284 245.90175 
L 66.68284 24.14175 
" clip-path="url(#p4520e2aa25)" style="fill: none; stroke: #d0d0d0; stroke-width: 0.6; stroke-linecap: square"/>
     </g>
     <g id="line2d_2">
      <defs>
       <path id="m095498880c" d="M 0 0 
L 0 3.5 
" style="stroke: #000000; stroke-width: 0.8"/>
      </defs>
      <g>
       <use xlink:href="#m095498880c" x="66.68284" y="245.90175" style="stroke: #000000; stroke-width: 0.8"/>
      </g>
     </g>
     <g id="text_1">
      <!-- −0.06 -->
      <g transform="translate(48.295653 262.019875) scale(0.12 -0.12)">
       <defs>
        <path id="DejaVuSans-2212" d="M 678 2272 
L 4684 2272 
L 4684 1741 
L 678 1741 
L 678 2272 
z
" transform="scale(0.015625)"/>
        <path id="DejaVuSans-30" d="M 2034 4250 
Q 1547 4250 1301 3770 
Q 1056 3291 1056 2328 
Q 1056 1369 1301 889 
Q 1547 409 2034 409 
Q 2525 409 2770 889 
Q 3016 1369 3016 2328 
Q 3016 3291 2770 3770 
Q 2525 4250 2034 4250 
z
M 2034 4750 
Q 2819 4750 3233 4129 
Q 3647 3509 3647 2328 
Q 3647 1150 3233 529 
Q 2819 -91 2034 -91 
Q 1250 -91 836 529 
Q 422 1150 422 2328 
Q 422 3509 836 4129 
Q 1250 4750 2034 4750 
z
" transform="scale(0.015625)"/>
        <path id="DejaVuSans-2e" d="M 684 794 
L 1344 794 
L 1344 0 
L 684 0 
L 684 794 
z
" transform="scale(0.015625)"/>
        <path id="DejaVuSans-36" d="M 2113 2584 
Q 1688 2584 1439 2293 
Q 1191 2003 1191 1497 
Q 1191 994 1439 701 
Q 1688 409 2113 409 
Q 2538 409 2786 701 
Q 3034 994 3034 1497 
Q 3034 2003 2786 2293 
Q 2538 2584 2113 2584 
z
M 3366 4563 
L 3366 3988 
Q 3128 4100 2886 4159 
Q 2644 4219 2406 4219 
Q 1781 4219 1451 3797 
Q 1122 3375 1075 2522 
Q 1259 2794 1537 2939 
Q 1816 3084 2150 3084 
Q 2853 3084 3261 2657 
Q 3669 2231 3669 1497 
Q 3669 778 3244 343 
Q 2819 -91 2113 -91 
Q 1303 -91 875 529 
Q 447 1150 447 2328 
Q 447 3434 972 4092 
Q 1497 4750 2381 4750 
Q 2619 4750 2861 4703 
Q 3103 4656 3366 4563 
z
" transform="scale(0.015625)"/>
       </defs>
       <use xlink:href="#DejaVuSans-2212"/>
       <use xlink:href="#DejaVuSans-30" transform="translate(83.789062 0)"/>
       <use xlink:href="#DejaVuSans-2e" transform="translate(147.412109 0)"/>
       <use xlink:href="#DejaVuSans-30" transform="translate(179.199219 0)"/>
       <use xlink:href="#DejaVuSans-36" transform="translate(242.822266 0)"/>
      </g>
     </g>
    </g>
    <g id="xtick_2">
     <g id="line2d_3">
      <path d="M 107.523429 245.90175 
L 107.523429 24.14175 
" clip-path="url(#p4520e2aa25)" style="fill: none; stroke: #d0d0d0; stroke-width: 0.6; stroke-linecap: square"/>
     </g>
     <g id="line2d_4">
      <g>
       <use xlink:href="#m095498880c" x="107.523429" y="245.90175" style="stroke: #000000; stroke-width: 0.8"/>
      </g>
     </g>
     <g id="text_2">
      <!-- −0.04 -->
      <g transform="translate(89.136241 262.019875) scale(0.12 -0.12)">
       <defs>
        <path id="DejaVuSans-34" d="M 2419 4116 
L 825 1625 
L 2419 1625 
L 2419 4116 
z
M 2253 4666 
L 3047 4666 
L 3047 1625 
L 3713 1625 
L 3713 1100 
L 3047 1100 
L 3047 0 
L 2419 0 
L 2419 1100 
L 313 1100 
L 313 1709 
L 2253 4666 
z
" transform="scale(0.015625)"/>
       </defs>
       <use xlink:href="#DejaVuSans-2212"/>
       <use xlink:href="#DejaVuSans-30" transform="translate(83.789062 0)"/>
       <use xlink:href="#DejaVuSans-2e" transform="translate(147.412109 0)"/>
       <use xlink:href="#DejaVuSans-30" transform="translate(179.199219 0)"/>
       <use xlink:href="#DejaVuSans-34" transform="translate(242.822266 0)"/>
      </g>
     </g>
    </g>
    <g id="xtick_3">
     <g id="line2d_5">
      <path d="M 148.364017 245.90175 
L 148.364017 24.14175 
" clip-path="url(#p4520e2aa25)" style="fill: none; stroke: #d0d0d0; stroke-width: 0.6; stroke-linecap: square"/>
     </g>
     <g id="line2d_6">
      <g>
       <use xlink:href="#m095498880c" x="148.364017" y="245.90175" style="stroke: #000000; stroke-width: 0.8"/>
      </g>
     </g>
     <g id="text_3">
      <!-- −0.02 -->
      <g transform="translate(129.97683 262.019875) scale(0.12 -0.12)">
       <defs>
        <path id="DejaVuSans-32" d="M 1228 531 
L 3431 531 
L 3431 0 
L 469 0 
L 469 531 
Q 828 903 1448 1529 
Q 2069 2156 2228 2338 
Q 2531 2678 2651 2914 
Q 2772 3150 2772 3378 
Q 2772 3750 2511 3984 
Q 2250 4219 1831 4219 
Q 1534 4219 1204 4116 
Q 875 4013 500 3803 
L 500 4441 
Q 881 4594 1212 4672 
Q 1544 4750 1819 4750 
Q 2544 4750 2975 4387 
Q 3406 4025 3406 3419 
Q 3406 3131 3298 2873 
Q 3191 2616 2906 2266 
Q 2828 2175 2409 1742 
Q 1991 1309 1228 531 
z
" transform="scale(0.015625)"/>
       </defs>
       <use xlink:href="#DejaVuSans-2212"/>
       <use xlink:href="#DejaVuSans-30" transform="translate(83.789062 0)"/>
       <use xlink:href="#DejaVuSans-2e" transform="translate(147.412109 0)"/>
       <use xlink:href="#DejaVuSans-30" transform="translate(179.199219 0)"/>
       <use xlink:href="#DejaVuSans-32" transform="translate(242.822266 0)"/>
      </g>
     </g>
    </g>
    <g id="xtick_4">
     <g id="line2d_7">
      <path d="M 189.204606 245.90175 
L 189.204606 24.14175 
" clip-path="url(#p4520e2aa25)" style="fill: none; stroke: #d0d0d0; stroke-width: 0.6; stroke-linecap: square"/>
     </g>
     <g id="line2d_8">
      <g>
       <use xlink:href="#m095498880c" x="189.204606" y="245.90175" style="stroke: #000000; stroke-width: 0.8"/>
      </g>
     </g>
     <g id="text_4">
      <!-- 0.00 -->
      <g transform="translate(175.845231 262.019875) scale(0.12 -0.12)">
       <use xlink:href="#DejaVuSans-30"/>
       <use xlink:href="#DejaVuSans-2e" transform="translate(63.623047 0)"/>
       <use xlink:href="#DejaVuSans-30" transform="translate(95.410156 0)"/>
       <use xlink:href="#DejaVuSans-30" transform="translate(159.033203 0)"/>
      </g>
     </g>
    </g>
    <g id="xtick_5">
     <g id="line2d_9">
      <path d="M 230.045194 245.90175 
L 230.045194 24.14175 
" clip-path="url(#p4520e2aa25)" style="fill: none; stroke: #d0d0d0; stroke-width: 0.6; stroke-linecap: square"/>
     </g>
     <g id="line2d_10">
      <g>
       <use xlink:href="#m095498880c" x="230.045194" y="245.90175" style="stroke: #000000; stroke-width: 0.8"/>
      </g>
     </g>
     <g id="text_5">
      <!-- 0.02 -->
      <g transform="translate(216.685819 262.019875) scale(0.12 -0.12)">
       <use xlink:href="#DejaVuSans-30"/>
       <use xlink:href="#DejaVuSans-2e" transform="translate(63.623047 0)"/>
       <use xlink:href="#DejaVuSans-30" transform="translate(95.410156 0)"/>
       <use xlink:href="#DejaVuSans-32" transform="translate(159.033203 0)"/>
      </g>
     </g>
    </g>
    <g id="xtick_6">
     <g id="line2d_11">
      <path d="M 270.885783 245.90175 
L 270.885783 24.14175 
" clip-path="url(#p4520e2aa25)" style="fill: none; stroke: #d0d0d0; stroke-width: 0.6; stroke-linecap: square"/>
     </g>
     <g id="line2d_12">
      <g>
       <use xlink:href="#m095498880c" x="270.885783" y="245.90175" style="stroke: #000000; stroke-width: 0.8"/>
      </g>
     </g>
     <g id="text_6">
      <!-- 0.04 -->
      <g transform="translate(257.526408 262.019875) scale(0.12 -0.12)">
       <use xlink:href="#DejaVuSans-30"/>
       <use xlink:href="#DejaVuSans-2e" transform="translate(63.623047 0)"/>
       <use xlink:href="#DejaVuSans-30" transform="translate(95.410156 0)"/>
       <use xlink:href="#DejaVuSans-34" transform="translate(159.033203 0)"/>
      </g>
     </g>
    </g>
    <g id="xtick_7">
     <g id="line2d_13">
      <path d="M 311.726371 245.90175 
L 311.726371 24.14175 
" clip-path="url(#p4520e2aa25)" style="fill: none; stroke: #d0d0d0; stroke-width: 0.6; stroke-linecap: square"/>
     </g>
     <g id="line2d_14">
      <g>
       <use xlink:href="#m095498880c" x="311.726371" y="245.90175" style="stroke: #000000; stroke-width: 0.8"/>
      </g>
     </g>
     <g id="text_7">
      <!-- 0.06 -->
      <g transform="translate(298.366996 262.019875) scale(0.12 -0.12)">
       <use xlink:href="#DejaVuSans-30"/>
       <use xlink:href="#DejaVuSans-2e" transform="translate(63.623047 0)"/>
       <use xlink:href="#DejaVuSans-30" transform="translate(95.410156 0)"/>
       <use xlink:href="#DejaVuSans-36" transform="translate(159.033203 0)"/>
      </g>
     </g>
    </g>
    <g id="xtick_8">
     <g id="line2d_15">
      <path d="M 352.56696 245.90175 
L 352.56696 24.14175 
" clip-path="url(#p4520e2aa25)" style="fill: none; stroke: #d0d0d0; stroke-width: 0.6; stroke-linecap: square"/>
     </g>
     <g id="line2d_16">
      <g>
       <use xlink:href="#m095498880c" x="352.56696" y="245.90175" style="stroke: #000000; stroke-width: 0.8"/>
      </g>
     </g>
     <g id="text_8">
      <!-- 0.08 -->
      <g transform="translate(339.207585 262.019875) scale(0.12 -0.12)">
       <defs>
        <path id="DejaVuSans-38" d="M 2034 2216 
Q 1584 2216 1326 1975 
Q 1069 1734 1069 1313 
Q 1069 891 1326 650 
Q 1584 409 2034 409 
Q 2484 409 2743 651 
Q 3003 894 3003 1313 
Q 3003 1734 2745 1975 
Q 2488 2216 2034 2216 
z
M 1403 2484 
Q 997 2584 770 2862 
Q 544 3141 544 3541 
Q 544 4100 942 4425 
Q 1341 4750 2034 4750 
Q 2731 4750 3128 4425 
Q 3525 4100 3525 3541 
Q 3525 3141 3298 2862 
Q 3072 2584 2669 2484 
Q 3125 2378 3379 2068 
Q 3634 1759 3634 1313 
Q 3634 634 3220 271 
Q 2806 -91 2034 -91 
Q 1263 -91 848 271 
Q 434 634 434 1313 
Q 434 1759 690 2068 
Q 947 2378 1403 2484 
z
M 1172 3481 
Q 1172 3119 1398 2916 
Q 1625 2713 2034 2713 
Q 2441 2713 2670 2916 
Q 2900 3119 2900 3481 
Q 2900 3844 2670 4047 
Q 2441 4250 2034 4250 
Q 1625 4250 1398 4047 
Q 1172 3844 1172 3481 
z
" transform="scale(0.015625)"/>
       </defs>
       <use xlink:href="#DejaVuSans-30"/>
       <use xlink:href="#DejaVuSans-2e" transform="translate(63.623047 0)"/>
       <use xlink:href="#DejaVuSans-30" transform="translate(95.410156 0)"/>
       <use xlink:href="#DejaVuSans-38" transform="translate(159.033203 0)"/>
      </g>
     </g>
    </g>
    <g id="text_9">
     <!-- Monthly log-return -->
     <g transform="translate(153.129943 277.633625) scale(0.12 -0.12)">
      <defs>
       <path id="DejaVuSans-4d" d="M 628 4666 
L 1569 4666 
L 2759 1491 
L 3956 4666 
L 4897 4666 
L 4897 0 
L 4281 0 
L 4281 4097 
L 3078 897 
L 2444 897 
L 1241 4097 
L 1241 0 
L 628 0 
L 628 4666 
z
" transform="scale(0.015625)"/>
       <path id="DejaVuSans-6f" d="M 1959 3097 
Q 1497 3097 1228 2736 
Q 959 2375 959 1747 
Q 959 1119 1226 758 
Q 1494 397 1959 397 
Q 2419 397 2687 759 
Q 2956 1122 2956 1747 
Q 2956 2369 2687 2733 
Q 2419 3097 1959 3097 
z
M 1959 3584 
Q 2709 3584 3137 3096 
Q 3566 2609 3566 1747 
Q 3566 888 3137 398 
Q 2709 -91 1959 -91 
Q 1206 -91 779 398 
Q 353 888 353 1747 
Q 353 2609 779 3096 
Q 1206 3584 1959 3584 
z
" transform="scale(0.015625)"/>
       <path id="DejaVuSans-6e" d="M 3513 2113 
L 3513 0 
L 2938 0 
L 2938 2094 
Q 2938 2591 2744 2837 
Q 2550 3084 2163 3084 
Q 1697 3084 1428 2787 
Q 1159 2491 1159 1978 
L 1159 0 
L 581 0 
L 581 3500 
L 1159 3500 
L 1159 2956 
Q 1366 3272 1645 3428 
Q 1925 3584 2291 3584 
Q 2894 3584 3203 3211 
Q 3513 2838 3513 2113 
z
" transform="scale(0.015625)"/>
       <path id="DejaVuSans-74" d="M 1172 4494 
L 1172 3500 
L 2356 3500 
L 2356 3053 
L 1172 3053 
L 1172 1153 
Q 1172 725 1289 603 
Q 1406 481 1766 481 
L 2356 481 
L 2356 0 
L 1766 0 
Q 1100 0 847 248 
Q 594 497 594 1153 
L 594 3053 
L 172 3053 
L 172 3500 
L 594 3500 
L 594 4494 
L 1172 4494 
z
" transform="scale(0.015625)"/>
       <path id="DejaVuSans-68" d="M 3513 2113 
L 3513 0 
L 2938 0 
L 2938 2094 
Q 2938 2591 2744 2837 
Q 2550 3084 2163 3084 
Q 1697 3084 1428 2787 
Q 1159 2491 1159 1978 
L 1159 0 
L 581 0 
L 581 4863 
L 1159 4863 
L 1159 2956 
Q 1366 3272 1645 3428 
Q 1925 3584 2291 3584 
Q 2894 3584 3203 3211 
Q 3513 2838 3513 2113 
z
" transform="scale(0.015625)"/>
       <path id="DejaVuSans-6c" d="M 603 4863 
L 1178 4863 
L 1178 0 
L 603 0 
L 603 4863 
z
" transform="scale(0.015625)"/>
       <path id="DejaVuSans-79" d="M 2059 -325 
Q 1816 -950 1584 -1140 
Q 1353 -1331 966 -1331 
L 506 -1331 
L 506 -850 
L 844 -850 
Q 1081 -850 1212 -737 
Q 1344 -625 1503 -206 
L 1606 56 
L 191 3500 
L 800 3500 
L 1894 763 
L 2988 3500 
L 3597 3500 
L 2059 -325 
z
" transform="scale(0.015625)"/>
       <path id="DejaVuSans-20" transform="scale(0.015625)"/>
       <path id="DejaVuSans-67" d="M 2906 1791 
Q 2906 2416 2648 2759 
Q 2391 3103 1925 3103 
Q 1463 3103 1205 2759 
Q 947 2416 947 1791 
Q 947 1169 1205 825 
Q 1463 481 1925 481 
Q 2391 481 2648 825 
Q 2906 1169 2906 1791 
z
M 3481 434 
Q 3481 -459 3084 -895 
Q 2688 -1331 1869 -1331 
Q 1566 -1331 1297 -1286 
Q 1028 -1241 775 -1147 
L 775 -588 
Q 1028 -725 1275 -790 
Q 1522 -856 1778 -856 
Q 2344 -856 2625 -561 
Q 2906 -266 2906 331 
L 2906 616 
Q 2728 306 2450 153 
Q 2172 0 1784 0 
Q 1141 0 747 490 
Q 353 981 353 1791 
Q 353 2603 747 3093 
Q 1141 3584 1784 3584 
Q 2172 3584 2450 3431 
Q 2728 3278 2906 2969 
L 2906 3500 
L 3481 3500 
L 3481 434 
z
" transform="scale(0.015625)"/>
       <path id="DejaVuSans-2d" d="M 313 2009 
L 1997 2009 
L 1997 1497 
L 313 1497 
L 313 2009 
z
" transform="scale(0.015625)"/>
       <path id="DejaVuSans-72" d="M 2631 2963 
Q 2534 3019 2420 3045 
Q 2306 3072 2169 3072 
Q 1681 3072 1420 2755 
Q 1159 2438 1159 1844 
L 1159 0 
L 581 0 
L 581 3500 
L 1159 3500 
L 1159 2956 
Q 1341 3275 1631 3429 
Q 1922 3584 2338 3584 
Q 2397 3584 2469 3576 
Q 2541 3569 2628 3553 
L 2631 2963 
z
" transform="scale(0.015625)"/>
       <path id="DejaVuSans-65" d="M 3597 1894 
L 3597 1613 
L 953 1613 
Q 991 1019 1311 708 
Q 1631 397 2203 397 
Q 2534 397 2845 478 
Q 3156 559 3463 722 
L 3463 178 
Q 3153 47 2828 -22 
Q 2503 -91 2169 -91 
Q 1331 -91 842 396 
Q 353 884 353 1716 
Q 353 2575 817 3079 
Q 1281 3584 2069 3584 
Q 2775 3584 3186 3129 
Q 3597 2675 3597 1894 
z
M 3022 2063 
Q 3016 2534 2758 2815 
Q 2500 3097 2075 3097 
Q 1594 3097 1305 2825 
Q 1016 2553 972 2059 
L 3022 2063 
z
" transform="scale(0.015625)"/>
       <path id="DejaVuSans-75" d="M 544 1381 
L 544 3500 
L 1119 3500 
L 1119 1403 
Q 1119 906 1312 657 
Q 1506 409 1894 409 
Q 2359 409 2629 706 
Q 2900 1003 2900 1516 
L 2900 3500 
L 3475 3500 
L 3475 0 
L 2900 0 
L 2900 538 
Q 2691 219 2414 64 
Q 2138 -91 1772 -91 
Q 1169 -91 856 284 
Q 544 659 544 1381 
z
M 1991 3584 
L 1991 3584 
z
" transform="scale(0.015625)"/>
      </defs>
      <use xlink:href="#DejaVuSans-4d"/>
      <use xlink:href="#DejaVuSans-6f" transform="translate(86.279297 0)"/>
      <use xlink:href="#DejaVuSans-6e" transform="translate(147.460938 0)"/>
      <use xlink:href="#DejaVuSans-74" transform="translate(210.839844 0)"/>
      <use xlink:href="#DejaVuSans-68" transform="translate(250.048828 0)"/>
      <use xlink:href="#DejaVuSans-6c" transform="translate(313.427734 0)"/>
      <use xlink:href="#DejaVuSans-79" transform="translate(341.210938 0)"/>
      <use xlink:href="#DejaVuSans-20" transform="translate(400.390625 0)"/>
      <use xlink:href="#DejaVuSans-6c" transform="translate(432.177734 0)"/>
      <use xlink:href="#DejaVuSans-6f" transform="translate(459.960938 0)"/>
      <use xlink:href="#DejaVuSans-67" transform="translate(521.142578 0)"/>
      <use xlink:href="#DejaVuSans-2d" transform="translate(584.619141 0)"/>
      <use xlink:href="#DejaVuSans-72" transform="translate(620.703125 0)"/>
      <use xlink:href="#DejaVuSans-65" transform="translate(659.566406 0)"/>
      <use xlink:href="#DejaVuSans-74" transform="translate(721.089844 0)"/>
      <use xlink:href="#DejaVuSans-75" transform="translate(760.298828 0)"/>
      <use xlink:href="#DejaVuSans-72" transform="translate(823.677734 0)"/>
      <use xlink:href="#DejaVuSans-6e" transform="translate(863.041016 0)"/>
     </g>
    </g>
   </g>
   <g id="matplotlib.axis_2">
    <g id="ytick_1">
     <g id="line2d_17">
      <path d="M 56.5325 245.90175 
L 360.896136 245.90175 
" clip-path="url(#p4520e2aa25)" style="fill: none; stroke: #d0d0d0; stroke-width: 0.6; stroke-linecap: square"/>
     </g>
     <g id="line2d_18">
      <defs>
       <path id="m6b3c9f66c4" d="M 0 0 
L -3.5 0 
" style="stroke: #000000; stroke-width: 0.8"/>
      </defs>
      <g>
       <use xlink:href="#m6b3c9f66c4" x="56.5325" y="245.90175" style="stroke: #000000; stroke-width: 0.8"/>
      </g>
     </g>
     <g id="text_10">
      <!-- 0.0 -->
      <g transform="translate(30.44875 250.460813) scale(0.12 -0.12)">
       <use xlink:href="#DejaVuSans-30"/>
       <use xlink:href="#DejaVuSans-2e" transform="translate(63.623047 0)"/>
       <use xlink:href="#DejaVuSans-30" transform="translate(95.410156 0)"/>
      </g>
     </g>
    </g>
    <g id="ytick_2">
     <g id="line2d_19">
      <path d="M 56.5325 216.389932 
L 360.896136 216.389932 
" clip-path="url(#p4520e2aa25)" style="fill: none; stroke: #d0d0d0; stroke-width: 0.6; stroke-linecap: square"/>
     </g>
     <g id="line2d_20">
      <g>
       <use xlink:href="#m6b3c9f66c4" x="56.5325" y="216.389932" style="stroke: #000000; stroke-width: 0.8"/>
      </g>
     </g>
     <g id="text_11">
      <!-- 2.5 -->
      <g transform="translate(30.44875 220.948995) scale(0.12 -0.12)">
       <defs>
        <path id="DejaVuSans-35" d="M 691 4666 
L 3169 4666 
L 3169 4134 
L 1269 4134 
L 1269 2991 
Q 1406 3038 1543 3061 
Q 1681 3084 1819 3084 
Q 2600 3084 3056 2656 
Q 3513 2228 3513 1497 
Q 3513 744 3044 326 
Q 2575 -91 1722 -91 
Q 1428 -91 1123 -41 
Q 819 9 494 109 
L 494 744 
Q 775 591 1075 516 
Q 1375 441 1709 441 
Q 2250 441 2565 725 
Q 2881 1009 2881 1497 
Q 2881 1984 2565 2268 
Q 2250 2553 1709 2553 
Q 1456 2553 1204 2497 
Q 953 2441 691 2322 
L 691 4666 
z
" transform="scale(0.015625)"/>
       </defs>
       <use xlink:href="#DejaVuSans-32"/>
       <use xlink:href="#DejaVuSans-2e" transform="translate(63.623047 0)"/>
       <use xlink:href="#DejaVuSans-35" transform="translate(95.410156 0)"/>
      </g>
     </g>
    </g>
    <g id="ytick_3">
     <g id="line2d_21">
      <path d="M 56.5325 186.878115 
L 360.896136 186.878115 
" clip-path="url(#p4520e2aa25)" style="fill: none; stroke: #d0d0d0; stroke-width: 0.6; stroke-linecap: square"/>
     </g>
     <g id="line2d_22">
      <g>
       <use xlink:href="#m6b3c9f66c4" x="56.5325" y="186.878115" style="stroke: #000000; stroke-width: 0.8"/>
      </g>
     </g>
     <g id="text_12">
      <!-- 5.0 -->
      <g transform="translate(30.44875 191.437177) scale(0.12 -0.12)">
       <use xlink:href="#DejaVuSans-35"/>
       <use xlink:href="#DejaVuSans-2e" transform="translate(63.623047 0)"/>
       <use xlink:href="#DejaVuSans-30" transform="translate(95.410156 0)"/>
      </g>
     </g>
    </g>
    <g id="ytick_4">
     <g id="line2d_23">
      <path d="M 56.5325 157.366297 
L 360.896136 157.366297 
" clip-path="url(#p4520e2aa25)" style="fill: none; stroke: #d0d0d0; stroke-width: 0.6; stroke-linecap: square"/>
     </g>
     <g id="line2d_24">
      <g>
       <use xlink:href="#m6b3c9f66c4" x="56.5325" y="157.366297" style="stroke: #000000; stroke-width: 0.8"/>
      </g>
     </g>
     <g id="text_13">
      <!-- 7.5 -->
      <g transform="translate(30.44875 161.92536) scale(0.12 -0.12)">
       <defs>
        <path id="DejaVuSans-37" d="M 525 4666 
L 3525 4666 
L 3525 4397 
L 1831 0 
L 1172 0 
L 2766 4134 
L 525 4134 
L 525 4666 
z
" transform="scale(0.015625)"/>
       </defs>
       <use xlink:href="#DejaVuSans-37"/>
       <use xlink:href="#DejaVuSans-2e" transform="translate(63.623047 0)"/>
       <use xlink:href="#DejaVuSans-35" transform="translate(95.410156 0)"/>
      </g>
     </g>
    </g>
    <g id="ytick_5">
     <g id="line2d_25">
      <path d="M 56.5325 127.85448 
L 360.896136 127.85448 
" clip-path="url(#p4520e2aa25)" style="fill: none; stroke: #d0d0d0; stroke-width: 0.6; stroke-linecap: square"/>
     </g>
     <g id="line2d_26">
      <g>
       <use xlink:href="#m6b3c9f66c4" x="56.5325" y="127.85448" style="stroke: #000000; stroke-width: 0.8"/>
      </g>
     </g>
     <g id="text_14">
      <!-- 10.0 -->
      <g transform="translate(22.81375 132.413542) scale(0.12 -0.12)">
       <defs>
        <path id="DejaVuSans-31" d="M 794 531 
L 1825 531 
L 1825 4091 
L 703 3866 
L 703 4441 
L 1819 4666 
L 2450 4666 
L 2450 531 
L 3481 531 
L 3481 0 
L 794 0 
L 794 531 
z
" transform="scale(0.015625)"/>
       </defs>
       <use xlink:href="#DejaVuSans-31"/>
       <use xlink:href="#DejaVuSans-30" transform="translate(63.623047 0)"/>
       <use xlink:href="#DejaVuSans-2e" transform="translate(127.246094 0)"/>
       <use xlink:href="#DejaVuSans-30" transform="translate(159.033203 0)"/>
      </g>
     </g>
    </g>
    <g id="ytick_6">
     <g id="line2d_27">
      <path d="M 56.5325 98.342662 
L 360.896136 98.342662 
" clip-path="url(#p4520e2aa25)" style="fill: none; stroke: #d0d0d0; stroke-width: 0.6; stroke-linecap: square"/>
     </g>
     <g id="line2d_28">
      <g>
       <use xlink:href="#m6b3c9f66c4" x="56.5325" y="98.342662" style="stroke: #000000; stroke-width: 0.8"/>
      </g>
     </g>
     <g id="text_15">
      <!-- 12.5 -->
      <g transform="translate(22.81375 102.901724) scale(0.12 -0.12)">
       <use xlink:href="#DejaVuSans-31"/>
       <use xlink:href="#DejaVuSans-32" transform="translate(63.623047 0)"/>
       <use xlink:href="#DejaVuSans-2e" transform="translate(127.246094 0)"/>
       <use xlink:href="#DejaVuSans-35" transform="translate(159.033203 0)"/>
      </g>
     </g>
    </g>
    <g id="ytick_7">
     <g id="line2d_29">
      <path d="M 56.5325 68.830844 
L 360.896136 68.830844 
" clip-path="url(#p4520e2aa25)" style="fill: none; stroke: #d0d0d0; stroke-width: 0.6; stroke-linecap: square"/>
     </g>
     <g id="line2d_30">
      <g>
       <use xlink:href="#m6b3c9f66c4" x="56.5325" y="68.830844" style="stroke: #000000; stroke-width: 0.8"/>
      </g>
     </g>
     <g id="text_16">
      <!-- 15.0 -->
      <g transform="translate(22.81375 73.389907) scale(0.12 -0.12)">
       <use xlink:href="#DejaVuSans-31"/>
       <use xlink:href="#DejaVuSans-35" transform="translate(63.623047 0)"/>
       <use xlink:href="#DejaVuSans-2e" transform="translate(127.246094 0)"/>
       <use xlink:href="#DejaVuSans-30" transform="translate(159.033203 0)"/>
      </g>
     </g>
    </g>
    <g id="ytick_8">
     <g id="line2d_31">
      <path d="M 56.5325 39.319027 
L 360.896136 39.319027 
" clip-path="url(#p4520e2aa25)" style="fill: none; stroke: #d0d0d0; stroke-width: 0.6; stroke-linecap: square"/>
     </g>
     <g id="line2d_32">
      <g>
       <use xlink:href="#m6b3c9f66c4" x="56.5325" y="39.319027" style="stroke: #000000; stroke-width: 0.8"/>
      </g>
     </g>
     <g id="text_17">
      <!-- 17.5 -->
      <g transform="translate(22.81375 43.878089) scale(0.12 -0.12)">
       <use xlink:href="#DejaVuSans-31"/>
       <use xlink:href="#DejaVuSans-37" transform="translate(63.623047 0)"/>
       <use xlink:href="#DejaVuSans-2e" transform="translate(127.246094 0)"/>
       <use xlink:href="#DejaVuSans-35" transform="translate(159.033203 0)"/>
      </g>
     </g>
    </g>
    <g id="text_18">
     <!-- Density -->
     <g transform="translate(16.318125 157.832063) rotate(-90) scale(0.12 -0.12)">
      <defs>
       <path id="DejaVuSans-44" d="M 1259 4147 
L 1259 519 
L 2022 519 
Q 2988 519 3436 956 
Q 3884 1394 3884 2338 
Q 3884 3275 3436 3711 
Q 2988 4147 2022 4147 
L 1259 4147 
z
M 628 4666 
L 1925 4666 
Q 3281 4666 3915 4102 
Q 4550 3538 4550 2338 
Q 4550 1131 3912 565 
Q 3275 0 1925 0 
L 628 0 
L 628 4666 
z
" transform="scale(0.015625)"/>
       <path id="DejaVuSans-73" d="M 2834 3397 
L 2834 2853 
Q 2591 2978 2328 3040 
Q 2066 3103 1784 3103 
Q 1356 3103 1142 2972 
Q 928 2841 928 2578 
Q 928 2378 1081 2264 
Q 1234 2150 1697 2047 
L 1894 2003 
Q 2506 1872 2764 1633 
Q 3022 1394 3022 966 
Q 3022 478 2636 193 
Q 2250 -91 1575 -91 
Q 1294 -91 989 -36 
Q 684 19 347 128 
L 347 722 
Q 666 556 975 473 
Q 1284 391 1588 391 
Q 1994 391 2212 530 
Q 2431 669 2431 922 
Q 2431 1156 2273 1281 
Q 2116 1406 1581 1522 
L 1381 1569 
Q 847 1681 609 1914 
Q 372 2147 372 2553 
Q 372 3047 722 3315 
Q 1072 3584 1716 3584 
Q 2034 3584 2315 3537 
Q 2597 3491 2834 3397 
z
" transform="scale(0.015625)"/>
       <path id="DejaVuSans-69" d="M 603 3500 
L 1178 3500 
L 1178 0 
L 603 0 
L 603 3500 
z
M 603 4863 
L 1178 4863 
L 1178 4134 
L 603 4134 
L 603 4863 
z
" transform="scale(0.015625)"/>
      </defs>
      <use xlink:href="#DejaVuSans-44"/>
      <use xlink:href="#DejaVuSans-65" transform="translate(77.001953 0)"/>
      <use xlink:href="#DejaVuSans-6e" transform="translate(138.525391 0)"/>
      <use xlink:href="#DejaVuSans-73" transform="translate(201.904297 0)"/>
      <use xlink:href="#DejaVuSans-69" transform="translate(254.003906 0)"/>
      <use xlink:href="#DejaVuSans-74" transform="translate(281.787109 0)"/>
      <use xlink:href="#DejaVuSans-79" transform="translate(320.996094 0)"/>
     </g>
    </g>
   </g>
   <g id="line2d_33">
    <path d="M 70.367211 226.513153 
L 77.7704 223.248226 
L 96.278375 215.328937 
L 99.97997 213.388775 
L 103.681564 211.146867 
L 106.457761 209.214429 
L 109.233957 207.027548 
L 112.010153 204.554423 
L 114.786349 201.768143 
L 117.562545 198.648084 
L 120.338741 195.181158 
L 123.114937 191.362847 
L 125.891133 187.198007 
L 128.66733 182.701387 
L 132.368924 176.234242 
L 136.070519 169.309225 
L 140.697513 160.188774 
L 152.727696 136.140874 
L 156.429291 129.329407 
L 159.205487 124.595735 
L 161.981683 120.25784 
L 164.757879 116.374157 
L 167.534075 112.993073 
L 169.384873 111.036843 
L 171.23567 109.32817 
L 173.086468 107.871962 
L 174.937265 106.670309 
L 176.788063 105.722451 
L 178.63886 105.024793 
L 180.489657 104.570978 
L 182.340455 104.352007 
L 184.191252 104.356418 
L 186.04205 104.570506 
L 187.892847 104.978593 
L 189.743645 105.563336 
L 192.519841 106.730573 
L 195.296037 108.186416 
L 198.997632 110.458075 
L 203.624625 113.607932 
L 212.878612 119.971858 
L 217.505606 122.84985 
L 222.1326 125.44316 
L 227.684992 128.238281 
L 241.565972 134.956911 
L 246.192966 137.550065 
L 249.894561 139.855868 
L 253.596156 142.383342 
L 258.223149 145.843643 
L 262.850143 149.591186 
L 269.327934 155.167746 
L 285.059712 168.888473 
L 291.537503 174.154262 
L 298.015294 179.117238 
L 306.343882 185.177735 
L 320.224863 195.214032 
L 327.628053 200.878834 
L 335.031242 206.838373 
L 347.061426 216.843564 
L 347.061426 216.843564 
" clip-path="url(#p4520e2aa25)" style="fill: none; stroke: #0072b2; stroke-width: 2; stroke-linecap: square"/>
   </g>
   <g id="line2d_34">
    <path d="M 189.204606 245.90175 
L 189.204606 24.14175 
" clip-path="url(#p4520e2aa25)" style="fill: none; stroke-dasharray: 3.7,1.6; stroke-dashoffset: 0; stroke: #666666"/>
   </g>
   <g id="patch_23">
    <path d="M 56.5325 245.90175 
L 56.5325 24.14175 
" style="fill: none; stroke: #000000; stroke-width: 0.8; stroke-linejoin: miter; stroke-linecap: square"/>
   </g>
   <g id="patch_24">
    <path d="M 56.5325 245.90175 
L 360.896136 245.90175 
" style="fill: none; stroke: #000000; stroke-width: 0.8; stroke-linejoin: miter; stroke-linecap: square"/>
   </g>
   <g id="text_19">
    <!-- Gold — Return Distribution (KDE) -->
    <g transform="translate(73.832443 18.14175) scale(0.144 -0.144)">
     <defs>
      <path id="DejaVuSans-Bold-47" d="M 4781 347 
Q 4331 128 3847 18 
Q 3363 -91 2847 -91 
Q 1681 -91 1000 561 
Q 319 1213 319 2328 
Q 319 3456 1012 4103 
Q 1706 4750 2913 4750 
Q 3378 4750 3804 4662 
Q 4231 4575 4609 4403 
L 4609 3438 
Q 4219 3659 3833 3768 
Q 3447 3878 3059 3878 
Q 2341 3878 1952 3476 
Q 1563 3075 1563 2328 
Q 1563 1588 1938 1184 
Q 2313 781 3003 781 
Q 3191 781 3352 804 
Q 3513 828 3641 878 
L 3641 1784 
L 2906 1784 
L 2906 2591 
L 4781 2591 
L 4781 347 
z
" transform="scale(0.015625)"/>
      <path id="DejaVuSans-Bold-6f" d="M 2203 2784 
Q 1831 2784 1636 2517 
Q 1441 2250 1441 1747 
Q 1441 1244 1636 976 
Q 1831 709 2203 709 
Q 2569 709 2762 976 
Q 2956 1244 2956 1747 
Q 2956 2250 2762 2517 
Q 2569 2784 2203 2784 
z
M 2203 3584 
Q 3106 3584 3614 3096 
Q 4122 2609 4122 1747 
Q 4122 884 3614 396 
Q 3106 -91 2203 -91 
Q 1297 -91 786 396 
Q 275 884 275 1747 
Q 275 2609 786 3096 
Q 1297 3584 2203 3584 
z
" transform="scale(0.015625)"/>
      <path id="DejaVuSans-Bold-6c" d="M 538 4863 
L 1656 4863 
L 1656 0 
L 538 0 
L 538 4863 
z
" transform="scale(0.015625)"/>
      <path id="DejaVuSans-Bold-64" d="M 2919 2988 
L 2919 4863 
L 4044 4863 
L 4044 0 
L 2919 0 
L 2919 506 
Q 2688 197 2409 53 
Q 2131 -91 1766 -91 
Q 1119 -91 703 423 
Q 288 938 288 1747 
Q 288 2556 703 3070 
Q 1119 3584 1766 3584 
Q 2128 3584 2408 3439 
Q 2688 3294 2919 2988 
z
M 2181 722 
Q 2541 722 2730 984 
Q 2919 1247 2919 1747 
Q 2919 2247 2730 2509 
Q 2541 2772 2181 2772 
Q 1825 2772 1636 2509 
Q 1447 2247 1447 1747 
Q 1447 1247 1636 984 
Q 1825 722 2181 722 
z
" transform="scale(0.015625)"/>
      <path id="DejaVuSans-Bold-20" transform="scale(0.015625)"/>
      <path id="DejaVuSans-Bold-2014" d="M 344 2156 
L 6056 2156 
L 6056 1350 
L 344 1350 
L 344 2156 
z
" transform="scale(0.015625)"/>
      <path id="DejaVuSans-Bold-52" d="M 2297 2597 
Q 2675 2597 2839 2737 
Q 3003 2878 3003 3200 
Q 3003 3519 2839 3656 
Q 2675 3794 2297 3794 
L 1791 3794 
L 1791 2597 
L 2297 2597 
z
M 1791 1766 
L 1791 0 
L 588 0 
L 588 4666 
L 2425 4666 
Q 3347 4666 3776 4356 
Q 4206 4047 4206 3378 
Q 4206 2916 3982 2619 
Q 3759 2322 3309 2181 
Q 3556 2125 3751 1926 
Q 3947 1728 4147 1325 
L 4800 0 
L 3519 0 
L 2950 1159 
Q 2778 1509 2601 1637 
Q 2425 1766 2131 1766 
L 1791 1766 
z
" transform="scale(0.015625)"/>
      <path id="DejaVuSans-Bold-65" d="M 4031 1759 
L 4031 1441 
L 1416 1441 
Q 1456 1047 1700 850 
Q 1944 653 2381 653 
Q 2734 653 3104 758 
Q 3475 863 3866 1075 
L 3866 213 
Q 3469 63 3072 -14 
Q 2675 -91 2278 -91 
Q 1328 -91 801 392 
Q 275 875 275 1747 
Q 275 2603 792 3093 
Q 1309 3584 2216 3584 
Q 3041 3584 3536 3087 
Q 4031 2591 4031 1759 
z
M 2881 2131 
Q 2881 2450 2695 2645 
Q 2509 2841 2209 2841 
Q 1884 2841 1681 2658 
Q 1478 2475 1428 2131 
L 2881 2131 
z
" transform="scale(0.015625)"/>
      <path id="DejaVuSans-Bold-74" d="M 1759 4494 
L 1759 3500 
L 2913 3500 
L 2913 2700 
L 1759 2700 
L 1759 1216 
Q 1759 972 1856 886 
Q 1953 800 2241 800 
L 2816 800 
L 2816 0 
L 1856 0 
Q 1194 0 917 276 
Q 641 553 641 1216 
L 641 2700 
L 84 2700 
L 84 3500 
L 641 3500 
L 641 4494 
L 1759 4494 
z
" transform="scale(0.015625)"/>
      <path id="DejaVuSans-Bold-75" d="M 500 1363 
L 500 3500 
L 1625 3500 
L 1625 3150 
Q 1625 2866 1622 2436 
Q 1619 2006 1619 1863 
Q 1619 1441 1641 1255 
Q 1663 1069 1716 984 
Q 1784 875 1895 815 
Q 2006 756 2150 756 
Q 2500 756 2700 1025 
Q 2900 1294 2900 1772 
L 2900 3500 
L 4019 3500 
L 4019 0 
L 2900 0 
L 2900 506 
Q 2647 200 2364 54 
Q 2081 -91 1741 -91 
Q 1134 -91 817 281 
Q 500 653 500 1363 
z
" transform="scale(0.015625)"/>
      <path id="DejaVuSans-Bold-72" d="M 3138 2547 
Q 2991 2616 2845 2648 
Q 2700 2681 2553 2681 
Q 2122 2681 1889 2404 
Q 1656 2128 1656 1613 
L 1656 0 
L 538 0 
L 538 3500 
L 1656 3500 
L 1656 2925 
Q 1872 3269 2151 3426 
Q 2431 3584 2822 3584 
Q 2878 3584 2943 3579 
Q 3009 3575 3134 3559 
L 3138 2547 
z
" transform="scale(0.015625)"/>
      <path id="DejaVuSans-Bold-6e" d="M 4056 2131 
L 4056 0 
L 2931 0 
L 2931 347 
L 2931 1631 
Q 2931 2084 2911 2256 
Q 2891 2428 2841 2509 
Q 2775 2619 2662 2680 
Q 2550 2741 2406 2741 
Q 2056 2741 1856 2470 
Q 1656 2200 1656 1722 
L 1656 0 
L 538 0 
L 538 3500 
L 1656 3500 
L 1656 2988 
Q 1909 3294 2193 3439 
Q 2478 3584 2822 3584 
Q 3428 3584 3742 3212 
Q 4056 2841 4056 2131 
z
" transform="scale(0.015625)"/>
      <path id="DejaVuSans-Bold-44" d="M 1791 3756 
L 1791 909 
L 2222 909 
Q 2959 909 3348 1275 
Q 3738 1641 3738 2338 
Q 3738 3031 3350 3393 
Q 2963 3756 2222 3756 
L 1791 3756 
z
M 588 4666 
L 1856 4666 
Q 2919 4666 3439 4514 
Q 3959 4363 4331 4000 
Q 4659 3684 4818 3271 
Q 4978 2859 4978 2338 
Q 4978 1809 4818 1395 
Q 4659 981 4331 666 
Q 3956 303 3431 151 
Q 2906 0 1856 0 
L 588 0 
L 588 4666 
z
" transform="scale(0.015625)"/>
      <path id="DejaVuSans-Bold-69" d="M 538 3500 
L 1656 3500 
L 1656 0 
L 538 0 
L 538 3500 
z
M 538 4863 
L 1656 4863 
L 1656 3950 
L 538 3950 
L 538 4863 
z
" transform="scale(0.015625)"/>
      <path id="DejaVuSans-Bold-73" d="M 3272 3391 
L 3272 2541 
Q 2913 2691 2578 2766 
Q 2244 2841 1947 2841 
Q 1628 2841 1473 2761 
Q 1319 2681 1319 2516 
Q 1319 2381 1436 2309 
Q 1553 2238 1856 2203 
L 2053 2175 
Q 2913 2066 3209 1816 
Q 3506 1566 3506 1031 
Q 3506 472 3093 190 
Q 2681 -91 1863 -91 
Q 1516 -91 1145 -36 
Q 775 19 384 128 
L 384 978 
Q 719 816 1070 734 
Q 1422 653 1784 653 
Q 2113 653 2278 743 
Q 2444 834 2444 1013 
Q 2444 1163 2330 1236 
Q 2216 1309 1875 1350 
L 1678 1375 
Q 931 1469 631 1722 
Q 331 1975 331 2491 
Q 331 3047 712 3315 
Q 1094 3584 1881 3584 
Q 2191 3584 2531 3537 
Q 2872 3491 3272 3391 
z
" transform="scale(0.015625)"/>
      <path id="DejaVuSans-Bold-62" d="M 2400 722 
Q 2759 722 2948 984 
Q 3138 1247 3138 1747 
Q 3138 2247 2948 2509 
Q 2759 2772 2400 2772 
Q 2041 2772 1848 2508 
Q 1656 2244 1656 1747 
Q 1656 1250 1848 986 
Q 2041 722 2400 722 
z
M 1656 2988 
Q 1888 3294 2169 3439 
Q 2450 3584 2816 3584 
Q 3463 3584 3878 3070 
Q 4294 2556 4294 1747 
Q 4294 938 3878 423 
Q 3463 -91 2816 -91 
Q 2450 -91 2169 54 
Q 1888 200 1656 506 
L 1656 0 
L 538 0 
L 538 4863 
L 1656 4863 
L 1656 2988 
z
" transform="scale(0.015625)"/>
      <path id="DejaVuSans-Bold-28" d="M 2413 -844 
L 1484 -844 
Q 1006 -72 778 623 
Q 550 1319 550 2003 
Q 550 2688 779 3389 
Q 1009 4091 1484 4856 
L 2413 4856 
Q 2013 4116 1813 3408 
Q 1613 2700 1613 2009 
Q 1613 1319 1811 609 
Q 2009 -100 2413 -844 
z
" transform="scale(0.015625)"/>
      <path id="DejaVuSans-Bold-4b" d="M 588 4666 
L 1791 4666 
L 1791 2963 
L 3525 4666 
L 4922 4666 
L 2675 2456 
L 5153 0 
L 3647 0 
L 1791 1838 
L 1791 0 
L 588 0 
L 588 4666 
z
" transform="scale(0.015625)"/>
      <path id="DejaVuSans-Bold-45" d="M 588 4666 
L 3834 4666 
L 3834 3756 
L 1791 3756 
L 1791 2888 
L 3713 2888 
L 3713 1978 
L 1791 1978 
L 1791 909 
L 3903 909 
L 3903 0 
L 588 0 
L 588 4666 
z
" transform="scale(0.015625)"/>
      <path id="DejaVuSans-Bold-29" d="M 513 -844 
Q 913 -100 1113 609 
Q 1313 1319 1313 2009 
Q 1313 2700 1113 3408 
Q 913 4116 513 4856 
L 1441 4856 
Q 1916 4091 2145 3389 
Q 2375 2688 2375 2003 
Q 2375 1319 2147 623 
Q 1919 -72 1441 -844 
L 513 -844 
z
" transform="scale(0.015625)"/>
     </defs>
     <use xlink:href="#DejaVuSans-Bold-47"/>
     <use xlink:href="#DejaVuSans-Bold-6f" transform="translate(82.080078 0)"/>
     <use xlink:href="#DejaVuSans-Bold-6c" transform="translate(150.78125 0)"/>
     <use xlink:href="#DejaVuSans-Bold-64" transform="translate(185.058594 0)"/>
     <use xlink:href="#DejaVuSans-Bold-20" transform="translate(256.640625 0)"/>
     <use xlink:href="#DejaVuSans-Bold-2014" transform="translate(291.455078 0)"/>
     <use xlink:href="#DejaVuSans-Bold-20" transform="translate(391.455078 0)"/>
     <use xlink:href="#DejaVuSans-Bold-52" transform="translate(426.269531 0)"/>
     <use xlink:href="#DejaVuSans-Bold-65" transform="translate(503.271484 0)"/>
     <use xlink:href="#DejaVuSans-Bold-74" transform="translate(571.09375 0)"/>
     <use xlink:href="#DejaVuSans-Bold-75" transform="translate(618.896484 0)"/>
     <use xlink:href="#DejaVuSans-Bold-72" transform="translate(690.087891 0)"/>
     <use xlink:href="#DejaVuSans-Bold-6e" transform="translate(739.404297 0)"/>
     <use xlink:href="#DejaVuSans-Bold-20" transform="translate(810.595703 0)"/>
     <use xlink:href="#DejaVuSans-Bold-44" transform="translate(845.410156 0)"/>
     <use xlink:href="#DejaVuSans-Bold-69" transform="translate(928.417969 0)"/>
     <use xlink:href="#DejaVuSans-Bold-73" transform="translate(962.695312 0)"/>
     <use xlink:href="#DejaVuSans-Bold-74" transform="translate(1022.216797 0)"/>
     <use xlink:href="#DejaVuSans-Bold-72" transform="translate(1070.019531 0)"/>
     <use xlink:href="#DejaVuSans-Bold-69" transform="translate(1119.335938 0)"/>
     <use xlink:href="#DejaVuSans-Bold-62" transform="translate(1153.613281 0)"/>
     <use xlink:href="#DejaVuSans-Bold-75" transform="translate(1225.195312 0)"/>
     <use xlink:href="#DejaVuSans-Bold-74" transform="translate(1296.386719 0)"/>
     <use xlink:href="#DejaVuSans-Bold-69" transform="translate(1344.189453 0)"/>
     <use xlink:href="#DejaVuSans-Bold-6f" transform="translate(1378.466797 0)"/>
     <use xlink:href="#DejaVuSans-Bold-6e" transform="translate(1447.167969 0)"/>
     <use xlink:href="#DejaVuSans-Bold-20" transform="translate(1518.359375 0)"/>
     <use xlink:href="#DejaVuSans-Bold-28" transform="translate(1553.173828 0)"/>
     <use xlink:href="#DejaVuSans-Bold-4b" transform="translate(1598.876953 0)"/>
     <use xlink:href="#DejaVuSans-Bold-44" transform="translate(1676.367188 0)"/>
     <use xlink:href="#DejaVuSans-Bold-45" transform="translate(1759.375 0)"/>
     <use xlink:href="#DejaVuSans-Bold-29" transform="translate(1827.685547 0)"/>
    </g>
   </g>
  </g>
  <g id="axes_2">
   <g id="patch_25">
    <path d="M 421.768864 245.90175 
L 726.1325 245.90175 
L 726.1325 24.14175 
L 421.768864 24.14175 
z
" style="fill: #ffffff"/>
   </g>
   <g id="patch_26">
    <path d="M 435.603574 245.90175 
L 449.438285 245.90175 
L 449.438285 198.968417 
L 435.603574 198.968417 
z
" clip-path="url(#pe38d2cf1d5)" style="fill: #e69f00; opacity: 0.35; stroke: #ffffff; stroke-linejoin: miter"/>
   </g>
   <g id="patch_27">
    <path d="M 449.438285 245.90175 
L 463.272996 245.90175 
L 463.272996 245.90175 
L 449.438285 245.90175 
z
" clip-path="url(#pe38d2cf1d5)" style="fill: #e69f00; opacity: 0.35; stroke: #ffffff; stroke-linejoin: miter"/>
   </g>
   <g id="patch_28">
    <path d="M 463.272996 245.90175 
L 477.107707 245.90175 
L 477.107707 245.90175 
L 463.272996 245.90175 
z
" clip-path="url(#pe38d2cf1d5)" style="fill: #e69f00; opacity: 0.35; stroke: #ffffff; stroke-linejoin: miter"/>
   </g>
   <g id="patch_29">
    <path d="M 477.107707 245.90175 
L 490.942417 245.90175 
L 490.942417 245.90175 
L 477.107707 245.90175 
z
" clip-path="url(#pe38d2cf1d5)" style="fill: #e69f00; opacity: 0.35; stroke: #ffffff; stroke-linejoin: miter"/>
   </g>
   <g id="patch_30">
    <path d="M 490.942417 245.90175 
L 504.777128 245.90175 
L 504.777128 222.435083 
L 490.942417 222.435083 
z
" clip-path="url(#pe38d2cf1d5)" style="fill: #e69f00; opacity: 0.35; stroke: #ffffff; stroke-linejoin: miter"/>
   </g>
   <g id="patch_31">
    <path d="M 504.777128 245.90175 
L 518.611839 245.90175 
L 518.611839 245.90175 
L 504.777128 245.90175 
z
" clip-path="url(#pe38d2cf1d5)" style="fill: #e69f00; opacity: 0.35; stroke: #ffffff; stroke-linejoin: miter"/>
   </g>
   <g id="patch_32">
    <path d="M 518.611839 245.90175 
L 532.44655 245.90175 
L 532.44655 105.10175 
L 518.611839 105.10175 
z
" clip-path="url(#pe38d2cf1d5)" style="fill: #e69f00; opacity: 0.35; stroke: #ffffff; stroke-linejoin: miter"/>
   </g>
   <g id="patch_33">
    <path d="M 532.44655 245.90175 
L 546.28126 245.90175 
L 546.28126 198.968417 
L 532.44655 198.968417 
z
" clip-path="url(#pe38d2cf1d5)" style="fill: #e69f00; opacity: 0.35; stroke: #ffffff; stroke-linejoin: miter"/>
   </g>
   <g id="patch_34">
    <path d="M 546.28126 245.90175 
L 560.115971 245.90175 
L 560.115971 175.50175 
L 546.28126 175.50175 
z
" clip-path="url(#pe38d2cf1d5)" style="fill: #e69f00; opacity: 0.35; stroke: #ffffff; stroke-linejoin: miter"/>
   </g>
   <g id="patch_35">
    <path d="M 560.115971 245.90175 
L 573.950682 245.90175 
L 573.950682 81.635083 
L 560.115971 81.635083 
z
" clip-path="url(#pe38d2cf1d5)" style="fill: #e69f00; opacity: 0.35; stroke: #ffffff; stroke-linejoin: miter"/>
   </g>
   <g id="patch_36">
    <path d="M 573.950682 245.90175 
L 587.785393 245.90175 
L 587.785393 81.635083 
L 573.950682 81.635083 
z
" clip-path="url(#pe38d2cf1d5)" style="fill: #e69f00; opacity: 0.35; stroke: #ffffff; stroke-linejoin: miter"/>
   </g>
   <g id="patch_37">
    <path d="M 587.785393 245.90175 
L 601.620103 245.90175 
L 601.620103 105.10175 
L 587.785393 105.10175 
z
" clip-path="url(#pe38d2cf1d5)" style="fill: #e69f00; opacity: 0.35; stroke: #ffffff; stroke-linejoin: miter"/>
   </g>
   <g id="patch_38">
    <path d="M 601.620103 245.90175 
L 615.454814 245.90175 
L 615.454814 128.568417 
L 601.620103 128.568417 
z
" clip-path="url(#pe38d2cf1d5)" style="fill: #e69f00; opacity: 0.35; stroke: #ffffff; stroke-linejoin: miter"/>
   </g>
   <g id="patch_39">
    <path d="M 615.454814 245.90175 
L 629.289525 245.90175 
L 629.289525 34.70175 
L 615.454814 34.70175 
z
" clip-path="url(#pe38d2cf1d5)" style="fill: #e69f00; opacity: 0.35; stroke: #ffffff; stroke-linejoin: miter"/>
   </g>
   <g id="patch_40">
    <path d="M 629.289525 245.90175 
L 643.124236 245.90175 
L 643.124236 128.568417 
L 629.289525 128.568417 
z
" clip-path="url(#pe38d2cf1d5)" style="fill: #e69f00; opacity: 0.35; stroke: #ffffff; stroke-linejoin: miter"/>
   </g>
   <g id="patch_41">
    <path d="M 643.124236 245.90175 
L 656.958946 245.90175 
L 656.958946 222.435083 
L 643.124236 222.435083 
z
" clip-path="url(#pe38d2cf1d5)" style="fill: #e69f00; opacity: 0.35; stroke: #ffffff; stroke-linejoin: miter"/>
   </g>
   <g id="patch_42">
    <path d="M 656.958946 245.90175 
L 670.793657 245.90175 
L 670.793657 175.50175 
L 656.958946 175.50175 
z
" clip-path="url(#pe38d2cf1d5)" style="fill: #e69f00; opacity: 0.35; stroke: #ffffff; stroke-linejoin: miter"/>
   </g>
   <g id="patch_43">
    <path d="M 670.793657 245.90175 
L 684.628368 245.90175 
L 684.628368 198.968417 
L 670.793657 198.968417 
z
" clip-path="url(#pe38d2cf1d5)" style="fill: #e69f00; opacity: 0.35; stroke: #ffffff; stroke-linejoin: miter"/>
   </g>
   <g id="patch_44">
    <path d="M 684.628368 245.90175 
L 698.463079 245.90175 
L 698.463079 152.035083 
L 684.628368 152.035083 
z
" clip-path="url(#pe38d2cf1d5)" style="fill: #e69f00; opacity: 0.35; stroke: #ffffff; stroke-linejoin: miter"/>
   </g>
   <g id="patch_45">
    <path d="M 698.463079 245.90175 
L 712.297789 245.90175 
L 712.297789 175.50175 
L 698.463079 175.50175 
z
" clip-path="url(#pe38d2cf1d5)" style="fill: #e69f00; opacity: 0.35; stroke: #ffffff; stroke-linejoin: miter"/>
   </g>
   <g id="matplotlib.axis_3">
    <g id="xtick_9">
     <g id="line2d_35">
      <path d="M 457.55343 245.90175 
L 457.55343 24.14175 
" clip-path="url(#pe38d2cf1d5)" style="fill: none; stroke: #d0d0d0; stroke-width: 0.6; stroke-linecap: square"/>
     </g>
     <g id="line2d_36">
      <g>
       <use xlink:href="#m095498880c" x="457.55343" y="245.90175" style="stroke: #000000; stroke-width: 0.8"/>
      </g>
     </g>
     <g id="text_20">
      <!-- −0.4 -->
      <g transform="translate(442.983743 262.019875) scale(0.12 -0.12)">
       <use xlink:href="#DejaVuSans-2212"/>
       <use xlink:href="#DejaVuSans-30" transform="translate(83.789062 0)"/>
       <use xlink:href="#DejaVuSans-2e" transform="translate(147.412109 0)"/>
       <use xlink:href="#DejaVuSans-34" transform="translate(179.199219 0)"/>
      </g>
     </g>
    </g>
    <g id="xtick_10">
     <g id="line2d_37">
      <path d="M 522.341588 245.90175 
L 522.341588 24.14175 
" clip-path="url(#pe38d2cf1d5)" style="fill: none; stroke: #d0d0d0; stroke-width: 0.6; stroke-linecap: square"/>
     </g>
     <g id="line2d_38">
      <g>
       <use xlink:href="#m095498880c" x="522.341588" y="245.90175" style="stroke: #000000; stroke-width: 0.8"/>
      </g>
     </g>
     <g id="text_21">
      <!-- −0.2 -->
      <g transform="translate(507.7719 262.019875) scale(0.12 -0.12)">
       <use xlink:href="#DejaVuSans-2212"/>
       <use xlink:href="#DejaVuSans-30" transform="translate(83.789062 0)"/>
       <use xlink:href="#DejaVuSans-2e" transform="translate(147.412109 0)"/>
       <use xlink:href="#DejaVuSans-32" transform="translate(179.199219 0)"/>
      </g>
     </g>
    </g>
    <g id="xtick_11">
     <g id="line2d_39">
      <path d="M 587.129746 245.90175 
L 587.129746 24.14175 
" clip-path="url(#pe38d2cf1d5)" style="fill: none; stroke: #d0d0d0; stroke-width: 0.6; stroke-linecap: square"/>
     </g>
     <g id="line2d_40">
      <g>
       <use xlink:href="#m095498880c" x="587.129746" y="245.90175" style="stroke: #000000; stroke-width: 0.8"/>
      </g>
     </g>
     <g id="text_22">
      <!-- 0.0 -->
      <g transform="translate(577.587871 262.019875) scale(0.12 -0.12)">
       <use xlink:href="#DejaVuSans-30"/>
       <use xlink:href="#DejaVuSans-2e" transform="translate(63.623047 0)"/>
       <use xlink:href="#DejaVuSans-30" transform="translate(95.410156 0)"/>
      </g>
     </g>
    </g>
    <g id="xtick_12">
     <g id="line2d_41">
      <path d="M 651.917903 245.90175 
L 651.917903 24.14175 
" clip-path="url(#pe38d2cf1d5)" style="fill: none; stroke: #d0d0d0; stroke-width: 0.6; stroke-linecap: square"/>
     </g>
     <g id="line2d_42">
      <g>
       <use xlink:href="#m095498880c" x="651.917903" y="245.90175" style="stroke: #000000; stroke-width: 0.8"/>
      </g>
     </g>
     <g id="text_23">
      <!-- 0.2 -->
      <g transform="translate(642.376028 262.019875) scale(0.12 -0.12)">
       <use xlink:href="#DejaVuSans-30"/>
       <use xlink:href="#DejaVuSans-2e" transform="translate(63.623047 0)"/>
       <use xlink:href="#DejaVuSans-32" transform="translate(95.410156 0)"/>
      </g>
     </g>
    </g>
    <g id="xtick_13">
     <g id="line2d_43">
      <path d="M 716.706061 245.90175 
L 716.706061 24.14175 
" clip-path="url(#pe38d2cf1d5)" style="fill: none; stroke: #d0d0d0; stroke-width: 0.6; stroke-linecap: square"/>
     </g>
     <g id="line2d_44">
      <g>
       <use xlink:href="#m095498880c" x="716.706061" y="245.90175" style="stroke: #000000; stroke-width: 0.8"/>
      </g>
     </g>
     <g id="text_24">
      <!-- 0.4 -->
      <g transform="translate(707.164186 262.019875) scale(0.12 -0.12)">
       <use xlink:href="#DejaVuSans-30"/>
       <use xlink:href="#DejaVuSans-2e" transform="translate(63.623047 0)"/>
       <use xlink:href="#DejaVuSans-34" transform="translate(95.410156 0)"/>
      </g>
     </g>
    </g>
    <g id="text_25">
     <!-- Monthly log-return -->
     <g transform="translate(518.366307 277.633625) scale(0.12 -0.12)">
      <use xlink:href="#DejaVuSans-4d"/>
      <use xlink:href="#DejaVuSans-6f" transform="translate(86.279297 0)"/>
      <use xlink:href="#DejaVuSans-6e" transform="translate(147.460938 0)"/>
      <use xlink:href="#DejaVuSans-74" transform="translate(210.839844 0)"/>
      <use xlink:href="#DejaVuSans-68" transform="translate(250.048828 0)"/>
      <use xlink:href="#DejaVuSans-6c" transform="translate(313.427734 0)"/>
      <use xlink:href="#DejaVuSans-79" transform="translate(341.210938 0)"/>
      <use xlink:href="#DejaVuSans-20" transform="translate(400.390625 0)"/>
      <use xlink:href="#DejaVuSans-6c" transform="translate(432.177734 0)"/>
      <use xlink:href="#DejaVuSans-6f" transform="translate(459.960938 0)"/>
      <use xlink:href="#DejaVuSans-67" transform="translate(521.142578 0)"/>
      <use xlink:href="#DejaVuSans-2d" transform="translate(584.619141 0)"/>
      <use xlink:href="#DejaVuSans-72" transform="translate(620.703125 0)"/>
      <use xlink:href="#DejaVuSans-65" transform="translate(659.566406 0)"/>
      <use xlink:href="#DejaVuSans-74" transform="translate(721.089844 0)"/>
      <use xlink:href="#DejaVuSans-75" transform="translate(760.298828 0)"/>
      <use xlink:href="#DejaVuSans-72" transform="translate(823.677734 0)"/>
      <use xlink:href="#DejaVuSans-6e" transform="translate(863.041016 0)"/>
     </g>
    </g>
   </g>
   <g id="matplotlib.axis_4">
    <g id="ytick_9">
     <g id="line2d_45">
      <path d="M 421.768864 245.90175 
L 726.1325 245.90175 
" clip-path="url(#pe38d2cf1d5)" style="fill: none; stroke: #d0d0d0; stroke-width: 0.6; stroke-linecap: square"/>
     </g>
     <g id="line2d_46">
      <g>
       <use xlink:href="#m6b3c9f66c4" x="421.768864" y="245.90175" style="stroke: #000000; stroke-width: 0.8"/>
      </g>
     </g>
     <g id="text_26">
      <!-- 0.0 -->
      <g transform="translate(395.685114 250.460813) scale(0.12 -0.12)">
       <use xlink:href="#DejaVuSans-30"/>
       <use xlink:href="#DejaVuSans-2e" transform="translate(63.623047 0)"/>
       <use xlink:href="#DejaVuSans-30" transform="translate(95.410156 0)"/>
      </g>
     </g>
    </g>
    <g id="ytick_10">
     <g id="line2d_47">
      <path d="M 421.768864 212.829039 
L 726.1325 212.829039 
" clip-path="url(#pe38d2cf1d5)" style="fill: none; stroke: #d0d0d0; stroke-width: 0.6; stroke-linecap: square"/>
     </g>
     <g id="line2d_48">
      <g>
       <use xlink:href="#m6b3c9f66c4" x="421.768864" y="212.829039" style="stroke: #000000; stroke-width: 0.8"/>
      </g>
     </g>
     <g id="text_27">
      <!-- 0.5 -->
      <g transform="translate(395.685114 217.388102) scale(0.12 -0.12)">
       <use xlink:href="#DejaVuSans-30"/>
       <use xlink:href="#DejaVuSans-2e" transform="translate(63.623047 0)"/>
       <use xlink:href="#DejaVuSans-35" transform="translate(95.410156 0)"/>
      </g>
     </g>
    </g>
    <g id="ytick_11">
     <g id="line2d_49">
      <path d="M 421.768864 179.756328 
L 726.1325 179.756328 
" clip-path="url(#pe38d2cf1d5)" style="fill: none; stroke: #d0d0d0; stroke-width: 0.6; stroke-linecap: square"/>
     </g>
     <g id="line2d_50">
      <g>
       <use xlink:href="#m6b3c9f66c4" x="421.768864" y="179.756328" style="stroke: #000000; stroke-width: 0.8"/>
      </g>
     </g>
     <g id="text_28">
      <!-- 1.0 -->
      <g transform="translate(395.685114 184.315391) scale(0.12 -0.12)">
       <use xlink:href="#DejaVuSans-31"/>
       <use xlink:href="#DejaVuSans-2e" transform="translate(63.623047 0)"/>
       <use xlink:href="#DejaVuSans-30" transform="translate(95.410156 0)"/>
      </g>
     </g>
    </g>
    <g id="ytick_12">
     <g id="line2d_51">
      <path d="M 421.768864 146.683618 
L 726.1325 146.683618 
" clip-path="url(#pe38d2cf1d5)" style="fill: none; stroke: #d0d0d0; stroke-width: 0.6; stroke-linecap: square"/>
     </g>
     <g id="line2d_52">
      <g>
       <use xlink:href="#m6b3c9f66c4" x="421.768864" y="146.683618" style="stroke: #000000; stroke-width: 0.8"/>
      </g>
     </g>
     <g id="text_29">
      <!-- 1.5 -->
      <g transform="translate(395.685114 151.24268) scale(0.12 -0.12)">
       <use xlink:href="#DejaVuSans-31"/>
       <use xlink:href="#DejaVuSans-2e" transform="translate(63.623047 0)"/>
       <use xlink:href="#DejaVuSans-35" transform="translate(95.410156 0)"/>
      </g>
     </g>
    </g>
    <g id="ytick_13">
     <g id="line2d_53">
      <path d="M 421.768864 113.610907 
L 726.1325 113.610907 
" clip-path="url(#pe38d2cf1d5)" style="fill: none; stroke: #d0d0d0; stroke-width: 0.6; stroke-linecap: square"/>
     </g>
     <g id="line2d_54">
      <g>
       <use xlink:href="#m6b3c9f66c4" x="421.768864" y="113.610907" style="stroke: #000000; stroke-width: 0.8"/>
      </g>
     </g>
     <g id="text_30">
      <!-- 2.0 -->
      <g transform="translate(395.685114 118.169969) scale(0.12 -0.12)">
       <use xlink:href="#DejaVuSans-32"/>
       <use xlink:href="#DejaVuSans-2e" transform="translate(63.623047 0)"/>
       <use xlink:href="#DejaVuSans-30" transform="translate(95.410156 0)"/>
      </g>
     </g>
    </g>
    <g id="ytick_14">
     <g id="line2d_55">
      <path d="M 421.768864 80.538196 
L 726.1325 80.538196 
" clip-path="url(#pe38d2cf1d5)" style="fill: none; stroke: #d0d0d0; stroke-width: 0.6; stroke-linecap: square"/>
     </g>
     <g id="line2d_56">
      <g>
       <use xlink:href="#m6b3c9f66c4" x="421.768864" y="80.538196" style="stroke: #000000; stroke-width: 0.8"/>
      </g>
     </g>
     <g id="text_31">
      <!-- 2.5 -->
      <g transform="translate(395.685114 85.097259) scale(0.12 -0.12)">
       <use xlink:href="#DejaVuSans-32"/>
       <use xlink:href="#DejaVuSans-2e" transform="translate(63.623047 0)"/>
       <use xlink:href="#DejaVuSans-35" transform="translate(95.410156 0)"/>
      </g>
     </g>
    </g>
    <g id="ytick_15">
     <g id="line2d_57">
      <path d="M 421.768864 47.465485 
L 726.1325 47.465485 
" clip-path="url(#pe38d2cf1d5)" style="fill: none; stroke: #d0d0d0; stroke-width: 0.6; stroke-linecap: square"/>
     </g>
     <g id="line2d_58">
      <g>
       <use xlink:href="#m6b3c9f66c4" x="421.768864" y="47.465485" style="stroke: #000000; stroke-width: 0.8"/>
      </g>
     </g>
     <g id="text_32">
      <!-- 3.0 -->
      <g transform="translate(395.685114 52.024548) scale(0.12 -0.12)">
       <defs>
        <path id="DejaVuSans-33" d="M 2597 2516 
Q 3050 2419 3304 2112 
Q 3559 1806 3559 1356 
Q 3559 666 3084 287 
Q 2609 -91 1734 -91 
Q 1441 -91 1130 -33 
Q 819 25 488 141 
L 488 750 
Q 750 597 1062 519 
Q 1375 441 1716 441 
Q 2309 441 2620 675 
Q 2931 909 2931 1356 
Q 2931 1769 2642 2001 
Q 2353 2234 1838 2234 
L 1294 2234 
L 1294 2753 
L 1863 2753 
Q 2328 2753 2575 2939 
Q 2822 3125 2822 3475 
Q 2822 3834 2567 4026 
Q 2313 4219 1838 4219 
Q 1578 4219 1281 4162 
Q 984 4106 628 3988 
L 628 4550 
Q 988 4650 1302 4700 
Q 1616 4750 1894 4750 
Q 2613 4750 3031 4423 
Q 3450 4097 3450 3541 
Q 3450 3153 3228 2886 
Q 3006 2619 2597 2516 
z
" transform="scale(0.015625)"/>
       </defs>
       <use xlink:href="#DejaVuSans-33"/>
       <use xlink:href="#DejaVuSans-2e" transform="translate(63.623047 0)"/>
       <use xlink:href="#DejaVuSans-30" transform="translate(95.410156 0)"/>
      </g>
     </g>
    </g>
    <g id="text_33">
     <!-- Density -->
     <g transform="translate(389.189489 157.832063) rotate(-90) scale(0.12 -0.12)">
      <use xlink:href="#DejaVuSans-44"/>
      <use xlink:href="#DejaVuSans-65" transform="translate(77.001953 0)"/>
      <use xlink:href="#DejaVuSans-6e" transform="translate(138.525391 0)"/>
      <use xlink:href="#DejaVuSans-73" transform="translate(201.904297 0)"/>
      <use xlink:href="#DejaVuSans-69" transform="translate(254.003906 0)"/>
      <use xlink:href="#DejaVuSans-74" transform="translate(281.787109 0)"/>
      <use xlink:href="#DejaVuSans-79" transform="translate(320.996094 0)"/>
     </g>
    </g>
   </g>
   <g id="line2d_59">
    <path d="M 435.603574 235.722224 
L 440.230568 235.315052 
L 444.857561 235.113303 
L 451.335352 235.080176 
L 460.58934 235.075579 
L 465.216333 234.823715 
L 468.917928 234.380344 
L 471.694124 233.86306 
L 474.47032 233.158727 
L 477.246516 232.244389 
L 480.022713 231.100383 
L 482.798909 229.710869 
L 485.575105 228.064265 
L 488.351301 226.153595 
L 491.127497 223.976716 
L 493.903693 221.536429 
L 496.679889 218.84042 
L 500.381484 214.869926 
L 504.083079 210.508022 
L 507.784674 205.806127 
L 512.411667 199.54004 
L 517.96406 191.607924 
L 526.292648 179.256635 
L 542.024426 155.87209 
L 548.502217 146.616529 
L 554.05461 139.048631 
L 558.681603 133.113419 
L 562.383198 128.676919 
L 566.084793 124.568459 
L 569.786388 120.828717 
L 572.562584 118.285279 
L 575.33878 115.976837 
L 578.114976 113.909989 
L 580.891172 112.088965 
L 583.667368 110.516565 
L 586.443564 109.195319 
L 589.219761 108.128702 
L 591.995957 107.322236 
L 594.772153 106.784331 
L 597.548349 106.526697 
L 600.324545 106.564248 
L 603.100741 106.914442 
L 605.876937 107.59606 
L 607.727735 108.243766 
L 609.578532 109.051956 
L 611.42933 110.024821 
L 614.205526 111.799371 
L 616.981722 113.955785 
L 619.757918 116.489983 
L 622.534114 119.387708 
L 625.31031 122.623668 
L 628.086506 126.161389 
L 631.788101 131.265142 
L 636.415095 138.071326 
L 646.594481 153.2621 
L 650.296076 158.381373 
L 653.99767 163.091603 
L 656.773867 166.310753 
L 659.550063 169.243168 
L 662.326259 171.887399 
L 665.102455 174.255157 
L 667.878651 176.370205 
L 671.580246 178.857419 
L 675.281841 181.059739 
L 681.759632 184.587442 
L 687.312024 187.694425 
L 691.013619 189.991684 
L 694.715214 192.555416 
L 698.416809 195.425625 
L 702.118403 198.610176 
L 705.819998 202.085743 
L 710.446992 206.759687 
L 712.297789 208.702574 
L 712.297789 208.702574 
" clip-path="url(#pe38d2cf1d5)" style="fill: none; stroke: #e69f00; stroke-width: 2; stroke-linecap: square"/>
   </g>
   <g id="line2d_60">
    <path d="M 587.129746 245.90175 
L 587.129746 24.14175 
" clip-path="url(#pe38d2cf1d5)" style="fill: none; stroke-dasharray: 3.7,1.6; stroke-dashoffset: 0; stroke: #666666"/>
   </g>
   <g id="patch_46">
    <path d="M 421.768864 245.90175 
L 421.768864 24.14175 
" style="fill: none; stroke: #000000; stroke-width: 0.8; stroke-linejoin: miter; stroke-linecap: square"/>
   </g>
   <g id="patch_47">
    <path d="M 421.768864 245.90175 
L 726.1325 245.90175 
" style="fill: none; stroke: #000000; stroke-width: 0.8; stroke-linejoin: miter; stroke-linecap: square"/>
   </g>
   <g id="text_34">
    <!-- BTC — Return Distribution (KDE) -->
    <g transform="translate(441.863307 18.14175) scale(0.144 -0.144)">
     <defs>
      <path id="DejaVuSans-Bold-42" d="M 2456 2859 
Q 2741 2859 2887 2984 
Q 3034 3109 3034 3353 
Q 3034 3594 2887 3720 
Q 2741 3847 2456 3847 
L 1791 3847 
L 1791 2859 
L 2456 2859 
z
M 2497 819 
Q 2859 819 3042 972 
Q 3225 1125 3225 1434 
Q 3225 1738 3044 1889 
Q 2863 2041 2497 2041 
L 1791 2041 
L 1791 819 
L 2497 819 
z
M 3616 2497 
Q 4003 2384 4215 2081 
Q 4428 1778 4428 1338 
Q 4428 663 3972 331 
Q 3516 0 2584 0 
L 588 0 
L 588 4666 
L 2394 4666 
Q 3366 4666 3802 4372 
Q 4238 4078 4238 3431 
Q 4238 3091 4078 2852 
Q 3919 2613 3616 2497 
z
" transform="scale(0.015625)"/>
      <path id="DejaVuSans-Bold-54" d="M 31 4666 
L 4331 4666 
L 4331 3756 
L 2784 3756 
L 2784 0 
L 1581 0 
L 1581 3756 
L 31 3756 
L 31 4666 
z
" transform="scale(0.015625)"/>
      <path id="DejaVuSans-Bold-43" d="M 4288 256 
Q 3956 84 3597 -3 
Q 3238 -91 2847 -91 
Q 1681 -91 1000 561 
Q 319 1213 319 2328 
Q 319 3447 1000 4098 
Q 1681 4750 2847 4750 
Q 3238 4750 3597 4662 
Q 3956 4575 4288 4403 
L 4288 3438 
Q 3953 3666 3628 3772 
Q 3303 3878 2944 3878 
Q 2300 3878 1931 3465 
Q 1563 3053 1563 2328 
Q 1563 1606 1931 1193 
Q 2300 781 2944 781 
Q 3303 781 3628 887 
Q 3953 994 4288 1222 
L 4288 256 
z
" transform="scale(0.015625)"/>
     </defs>
     <use xlink:href="#DejaVuSans-Bold-42"/>
     <use xlink:href="#DejaVuSans-Bold-54" transform="translate(76.220703 0)"/>
     <use xlink:href="#DejaVuSans-Bold-43" transform="translate(144.433594 0)"/>
     <use xlink:href="#DejaVuSans-Bold-20" transform="translate(217.822266 0)"/>
     <use xlink:href="#DejaVuSans-Bold-2014" transform="translate(252.636719 0)"/>
     <use xlink:href="#DejaVuSans-Bold-20" transform="translate(352.636719 0)"/>
     <use xlink:href="#DejaVuSans-Bold-52" transform="translate(387.451172 0)"/>
     <use xlink:href="#DejaVuSans-Bold-65" transform="translate(464.453125 0)"/>
     <use xlink:href="#DejaVuSans-Bold-74" transform="translate(532.275391 0)"/>
     <use xlink:href="#DejaVuSans-Bold-75" transform="translate(580.078125 0)"/>
     <use xlink:href="#DejaVuSans-Bold-72" transform="translate(651.269531 0)"/>
     <use xlink:href="#DejaVuSans-Bold-6e" transform="translate(700.585938 0)"/>
     <use xlink:href="#DejaVuSans-Bold-20" transform="translate(771.777344 0)"/>
     <use xlink:href="#DejaVuSans-Bold-44" transform="translate(806.591797 0)"/>
     <use xlink:href="#DejaVuSans-Bold-69" transform="translate(889.599609 0)"/>
     <use xlink:href="#DejaVuSans-Bold-73" transform="translate(923.876953 0)"/>
     <use xlink:href="#DejaVuSans-Bold-74" transform="translate(983.398438 0)"/>
     <use xlink:href="#DejaVuSans-Bold-72" transform="translate(1031.201172 0)"/>
     <use xlink:href="#DejaVuSans-Bold-69" transform="translate(1080.517578 0)"/>
     <use xlink:href="#DejaVuSans-Bold-62" transform="translate(1114.794922 0)"/>
     <use xlink:href="#DejaVuSans-Bold-75" transform="translate(1186.376953 0)"/>
     <use xlink:href="#DejaVuSans-Bold-74" transform="translate(1257.568359 0)"/>
     <use xlink:href="#DejaVuSans-Bold-69" transform="translate(1305.371094 0)"/>
     <use xlink:href="#DejaVuSans-Bold-6f" transform="translate(1339.648438 0)"/>
     <use xlink:href="#DejaVuSans-Bold-6e" transform="translate(1408.349609 0)"/>
     <use xlink:href="#DejaVuSans-Bold-20" transform="translate(1479.541016 0)"/>
     <use xlink:href="#DejaVuSans-Bold-28" transform="translate(1514.355469 0)"/>
     <use xlink:href="#DejaVuSans-Bold-4b" transform="translate(1560.058594 0)"/>
     <use xlink:href="#DejaVuSans-Bold-44" transform="translate(1637.548828 0)"/>
     <use xlink:href="#DejaVuSans-Bold-45" transform="translate(1720.556641 0)"/>
     <use xlink:href="#DejaVuSans-Bold-29" transform="translate(1788.867188 0)"/>
    </g>
   </g>
  </g>
 </g>
 <defs>
  <clipPath id="p4520e2aa25">
   <rect x="56.5325" y="24.14175" width="304.363636" height="221.76"/>
  </clipPath>
  <clipPath id="pe38d2cf1d5">
   <rect x="421.768864" y="24.14175" width="304.363636" height="221.76"/>
  </clipPath>
 </defs>
</svg>
